<svg width="32" height="32" viewBox="0 0 32 32" fill="none" xmlns="http://www.w3.org/2000/svg">
<g clip-path="url(#clip0_2326_15946)">
<path d="M29.3333 0H2.66667C1.19391 0 0 1.19391 0 2.66667V29.3333C0 30.8061 1.19391 32 2.66667 32H29.3333C30.8061 32 32 30.8061 32 29.3333V2.66667C32 1.19391 30.8061 0 29.3333 0Z" fill="#627EEB"/>
<g clip-path="url(#clip1_2326_15946)">
<path d="M15.6646 4.66663L15.5117 5.16783V19.7115L15.6646 19.8587L22.6625 15.8682L15.6646 4.66663Z" fill="#C2C8F6"/>
<path d="M15.6644 4.66663L8.6665 15.8682L15.6644 19.8587V12.7997V4.66663Z" fill="#FEFDFF"/>
<path d="M15.6643 21.1369L15.5781 21.2382V26.419L15.6643 26.6617L22.6663 17.1484L15.6643 21.1369Z" fill="#C3CCFC"/>
<path d="M15.6644 26.6616V21.1368L8.6665 17.1483L15.6644 26.6616Z" fill="#FBFFFA"/>
<path d="M15.6646 19.8586L22.6624 15.8682L15.6646 12.7997V19.8586Z" fill="#7F97E8"/>
<path d="M8.6665 15.8682L15.6643 19.8586V12.7997L8.6665 15.8682Z" fill="#C2CBFA"/>
</g>
</g>
<defs>
<clipPath id="clip0_2326_15946">
<path d="M0 16C0 7.16344 7.16344 0 16 0V0C24.8366 0 32 7.16344 32 16V16C32 24.8366 24.8366 32 16 32V32C7.16344 32 0 24.8366 0 16V16Z" fill="white"/>
</clipPath>
<clipPath id="clip1_2326_15946">
<rect width="14" height="22" fill="white" transform="translate(8.6665 4.66663)"/>
</clipPath>
</defs>
</svg>
