<svg width="167" height="31" viewBox="0 0 167 31" fill="none" xmlns="http://www.w3.org/2000/svg">
<path d="M56.4507 3.98795H59.5714C60.8981 3.98795 61.9733 5.06043 61.9733 6.38295V19.6339H72.5384V22.4273C72.5384 23.7498 71.4632 24.8223 70.1365 24.8223H56.4507V3.98795Z" fill="#344054"/>
<path d="M91.0686 14.6446C91.0686 11.4524 88.6671 9.01761 85.4264 9.01723C82.357 9.01647 79.9211 11.3839 79.8248 14.4431C79.7213 17.7351 82.1557 20.2719 85.4252 20.2719C88.6668 20.2719 91.0686 17.8379 91.0686 14.6446ZM74.4575 14.6446C74.4575 8.5783 78.7405 3.98788 84.4237 3.98788C87.1461 3.98788 89.4275 5.06609 91.0686 6.86196C91.0686 5.53905 92.1441 4.46696 93.4704 4.46696H96.2718V24.8222H93.4704C92.1441 24.8222 91.0686 23.7501 91.0686 22.4272C89.4275 24.2242 87.1461 25.3013 84.4237 25.3013C78.7405 25.3013 74.4575 20.7108 74.4575 14.6446Z" fill="#344054"/>
<path d="M100.038 4.46665H102.959C104.219 4.46665 105.241 5.48559 105.241 6.74236C106.91 4.86926 109.274 3.90843 112.062 3.99292C116.323 4.12254 119.69 7.65081 119.69 11.9009V24.8223H114.487V13.5672C114.487 10.8128 112.726 9.01693 110.044 9.01693C107.161 9.01693 105.241 10.8526 105.241 13.6467V24.8223H100.038V4.46665Z" fill="#344054"/>
<path d="M121.981 14.6446C121.981 8.5783 126.705 3.98788 132.949 3.98788C138.392 3.98788 142.635 7.46033 143.435 12.2901H137.912C137.232 10.334 135.31 9.01723 132.949 9.01723C129.746 9.01723 127.345 11.452 127.345 14.6446C127.345 17.8379 129.746 20.2719 132.949 20.2719C135.31 20.2719 137.232 18.9551 137.912 16.9998H143.435C142.635 21.8288 138.392 25.3013 132.949 25.3013C126.705 25.3013 121.981 20.7108 121.981 14.6446Z" fill="#344054"/>
<path d="M161.797 14.6446C161.797 11.4524 159.395 9.01761 156.154 9.01723C153.085 9.01685 150.649 11.3836 150.553 14.4427C150.449 17.7347 152.883 20.2719 156.153 20.2719C159.395 20.2719 161.797 17.8379 161.797 14.6446ZM145.186 14.6446C145.186 8.5783 149.468 3.98788 155.152 3.98788C157.874 3.98788 160.156 5.06609 161.797 6.86196C161.797 5.53905 162.872 4.46696 164.198 4.46696H167V24.8222H164.198C162.872 24.8222 161.797 23.7501 161.797 22.4272C160.156 24.2242 157.874 25.3013 155.152 25.3013C149.468 25.3013 145.186 20.7108 145.186 14.6446Z" fill="#344054"/>
<path d="M22.5415 4.76484L22.5481 4.75825C22.5528 4.75364 28.2446 -0.994298 33.9581 4.70623C28.5673 -0.672298 18.2172 -2.35737 11.0847 4.75825L9.29346 6.53814C12.4469 9.70547 17.5797 9.71403 20.7444 6.55724L21.1285 6.174C21.8974 5.36143 22.5059 4.7971 22.5409 4.76484H22.5415Z" fill="url(#paint0_linear_409_1334)"/>
<path d="M33.9595 4.70623C28.2459 -0.994303 22.5535 4.75364 22.5495 4.75825L22.5423 4.76483C22.5423 4.76483 21.4421 5.78878 21.1299 6.174C22.3166 5.39632 23.5639 5.771 24.016 6.22141C24.9249 7.12814 34.0037 16.1863 34.0037 16.1863C37.1691 19.3444 42.3012 19.3444 45.4665 16.1863C45.4665 16.1863 35.7626 6.50456 33.9602 4.70623H33.9595Z" fill="url(#paint1_linear_409_1334)"/>
<path d="M22.9244 25.3793L22.9178 25.3858C22.9132 25.3905 17.2214 31.1384 11.5078 25.4379C16.8986 30.8164 27.2487 32.5015 34.3813 25.3858L36.1725 23.606C33.019 20.4386 27.8862 20.4301 24.7216 23.5869L24.3375 23.9701C23.5686 24.7827 22.96 25.347 22.9251 25.3793H22.9244Z" fill="url(#paint2_linear_409_1334)"/>
<path d="M11.507 25.438C17.2206 31.1385 22.913 25.3906 22.917 25.386L22.9243 25.3794C22.9243 25.3794 24.0245 24.3555 24.3366 23.9702C23.15 24.7479 21.9026 24.3732 21.4505 23.9228C20.5417 23.0161 11.4628 13.9579 11.4628 13.9579C8.29745 10.7998 3.16533 10.7998 0 13.9579C0 13.9579 9.7039 23.6397 11.5063 25.438H11.507Z" fill="url(#paint3_linear_409_1334)"/>
<defs>
<linearGradient id="paint0_linear_409_1334" x1="15.8762" y1="-0.0750492" x2="27.3519" y2="11.3457" gradientUnits="userSpaceOnUse">
<stop stop-color="#80FFDC"/>
<stop offset="1" stop-color="#48C0E3"/>
</linearGradient>
<linearGradient id="paint1_linear_409_1334" x1="24.6952" y1="2.6175" x2="42.2171" y2="20.0548" gradientUnits="userSpaceOnUse">
<stop offset="0.03" stop-color="#4FA8DE"/>
<stop offset="1" stop-color="#5E61CE"/>
</linearGradient>
<linearGradient id="paint2_linear_409_1334" x1="29.5903" y1="30.2191" x2="18.1147" y2="18.7984" gradientUnits="userSpaceOnUse">
<stop stop-color="#80FFDC"/>
<stop offset="1" stop-color="#48C0E3"/>
</linearGradient>
<linearGradient id="paint3_linear_409_1334" x1="20.7714" y1="27.5267" x2="3.24942" y2="10.0894" gradientUnits="userSpaceOnUse">
<stop offset="0.03" stop-color="#4FA8DE"/>
<stop offset="1" stop-color="#5E61CE"/>
</linearGradient>
</defs>
</svg>
