<svg width="111" height="32" viewBox="0 0 111 32" fill="none" xmlns="http://www.w3.org/2000/svg">
<path d="M37.521 8.63276H39.5953C40.4771 8.63276 41.1917 9.3456 41.1917 10.2246V19.0321H48.214V20.8888C48.214 21.7679 47.4994 22.4807 46.6176 22.4807H37.521V8.63276Z" fill="#344054"/>
<path d="M60.5306 15.7159C60.5306 13.5941 58.9345 11.9758 56.7804 11.9755C54.7403 11.975 53.1212 13.5486 53.0572 15.582C52.9884 17.77 54.6065 19.4562 56.7797 19.4562C58.9342 19.4562 60.5306 17.8384 60.5306 15.7159ZM49.4897 15.7159C49.4897 11.6838 52.3365 8.63268 56.114 8.63268C57.9235 8.63268 59.4398 9.34934 60.5306 10.543C60.5306 9.6637 61.2455 8.95111 62.1271 8.95111H63.989V22.4806H62.1271C61.2455 22.4806 60.5306 21.7681 60.5306 20.8888C59.4398 22.0832 57.9235 22.7991 56.114 22.7991C52.3365 22.7991 49.4897 19.748 49.4897 15.7159Z" fill="#344054"/>
<path d="M66.4922 8.95093H68.4337C69.2714 8.95093 69.9506 9.62819 69.9506 10.4635C71.06 9.21853 72.6314 8.5799 74.4847 8.63606C77.3165 8.72221 79.5549 11.0673 79.5549 13.8923V22.4807H76.0965V14.9998C76.0965 13.169 74.9259 11.9754 73.1429 11.9754C71.2272 11.9754 69.9506 13.1955 69.9506 15.0527V22.4807H66.4922V8.95093Z" fill="#344054"/>
<path d="M81.0776 15.7159C81.0776 11.6838 84.217 8.63268 88.3673 8.63268C91.985 8.63268 94.8052 10.9407 95.3374 14.1509H91.6659C91.214 12.8508 89.9367 11.9755 88.3673 11.9755C86.2387 11.9755 84.6423 13.5939 84.6423 15.7159C84.6423 17.8384 86.2387 19.4562 88.3673 19.4562C89.9367 19.4562 91.214 18.581 91.6659 17.2813H95.3374C94.8052 20.491 91.985 22.7991 88.3673 22.7991C84.217 22.7991 81.0776 19.748 81.0776 15.7159Z" fill="#344054"/>
<path d="M107.541 15.7159C107.541 13.5941 105.945 11.9758 103.791 11.9755C101.751 11.9753 100.132 13.5484 100.068 15.5817C99.9992 17.7698 101.617 19.4562 103.79 19.4562C105.945 19.4562 107.541 17.8384 107.541 15.7159ZM96.5005 15.7159C96.5005 11.6838 99.3472 8.63268 103.125 8.63268C104.934 8.63268 106.451 9.34934 107.541 10.543C107.541 9.6637 108.256 8.95111 109.138 8.95111H111V22.4806H109.138C108.256 22.4806 107.541 21.7681 107.541 20.8888C106.451 22.0832 104.934 22.7991 103.125 22.7991C99.3472 22.7991 96.5005 19.748 96.5005 15.7159Z" fill="#344054"/>
<path d="M14.9829 9.14903L14.9872 9.14466C14.9903 9.14159 18.7735 5.32111 22.5711 9.11008C18.988 5.53513 12.1086 4.41511 7.36782 9.14466L6.17725 10.3277C8.27326 12.4329 11.6849 12.4386 13.7883 10.3404L14.0436 10.0857C14.5547 9.54557 14.9592 9.17048 14.9824 9.14903H14.9829Z" fill="url(#paint0_linear_409_961)"/>
<path d="M22.5719 9.11007C18.7743 5.3211 14.9907 9.14158 14.988 9.14465L14.9832 9.14903C14.9832 9.14903 14.2519 9.82961 14.0444 10.0857C14.8332 9.56876 15.6623 9.8178 15.9628 10.1172C16.5668 10.7198 22.6013 16.7405 22.6013 16.7405C24.7052 18.8396 28.1164 18.8396 30.2203 16.7405C30.2203 16.7405 23.7704 10.3054 22.5724 9.11007H22.5719Z" fill="url(#paint1_linear_409_961)"/>
<path d="M15.2372 22.8509L15.2328 22.8553C15.2297 22.8584 11.4466 26.6788 7.64893 22.8899C11.2321 26.4648 18.1114 27.5848 22.8522 22.8553L24.0428 21.6722C21.9468 19.567 18.5352 19.5613 16.4317 21.6596L16.1764 21.9143C15.6653 22.4544 15.2609 22.8295 15.2376 22.8509H15.2372Z" fill="url(#paint2_linear_409_961)"/>
<path d="M7.64837 22.8899C11.446 26.6788 15.2296 22.8583 15.2323 22.8553L15.2371 22.8509C15.2371 22.8509 15.9684 22.1703 16.1759 21.9143C15.3871 22.4312 14.558 22.1821 14.2575 21.8828C13.6535 21.2801 7.61898 15.2594 7.61898 15.2594C5.51507 13.1603 2.10391 13.1603 0 15.2594C0 15.2594 6.4499 21.6946 7.64793 22.8899H7.64837Z" fill="url(#paint3_linear_409_961)"/>
<defs>
<linearGradient id="paint0_linear_409_961" x1="10.5526" y1="5.9321" x2="18.1801" y2="13.5231" gradientUnits="userSpaceOnUse">
<stop stop-color="#80FFDC"/>
<stop offset="1" stop-color="#48C0E3"/>
</linearGradient>
<linearGradient id="paint1_linear_409_961" x1="16.4142" y1="7.72176" x2="28.0605" y2="19.3118" gradientUnits="userSpaceOnUse">
<stop offset="0.03" stop-color="#4FA8DE"/>
<stop offset="1" stop-color="#5E61CE"/>
</linearGradient>
<linearGradient id="paint2_linear_409_961" x1="19.6679" y1="26.0678" x2="12.0403" y2="18.4768" gradientUnits="userSpaceOnUse">
<stop stop-color="#80FFDC"/>
<stop offset="1" stop-color="#48C0E3"/>
</linearGradient>
<linearGradient id="paint3_linear_409_961" x1="13.8061" y1="24.2782" x2="2.15979" y2="12.6881" gradientUnits="userSpaceOnUse">
<stop offset="0.03" stop-color="#4FA8DE"/>
<stop offset="1" stop-color="#5E61CE"/>
</linearGradient>
</defs>
</svg>
