<svg width="16" height="16" viewBox="0 0 16 16" fill="none" xmlns="http://www.w3.org/2000/svg">
<rect width="16" height="16" fill="#FF0420"/>
<path fill-rule="evenodd" clip-rule="evenodd" d="M4.41613 10.3199C4.67149 10.4002 4.94813 10.4405 5.24605 10.4405C5.93175 10.4405 6.47794 10.282 6.88461 9.9652C7.29128 9.64365 7.57502 9.15891 7.73581 8.51106C7.78311 8.30771 7.82803 8.10439 7.87059 7.90104C7.91789 7.69768 7.95806 7.49198 7.99117 7.28392C8.04792 6.96237 8.03847 6.68098 7.9628 6.43981C7.89187 6.19864 7.76654 5.99528 7.58685 5.82978C7.41187 5.66429 7.19672 5.54131 6.94136 5.46093C6.69074 5.37581 6.41645 5.33325 6.11853 5.33325C5.42813 5.33325 4.87955 5.49875 4.47288 5.82978C4.06621 6.16082 3.78483 6.64552 3.62877 7.28392C3.58147 7.49198 3.53421 7.69768 3.48691 7.90104C3.44435 8.10439 3.40414 8.30771 3.36632 8.51106C3.31431 8.83262 3.32376 9.114 3.39469 9.35517C3.47037 9.59635 3.59566 9.79731 3.77064 9.95811C3.94562 10.1189 4.16077 10.2395 4.41613 10.3199ZM6.01213 9.19203C5.81826 9.34334 5.59363 9.41901 5.33827 9.41901C5.07816 9.41901 4.89139 9.34334 4.77789 9.19203C4.6644 9.04071 4.63603 8.79954 4.69277 8.46851C4.73059 8.26045 4.76845 8.06418 4.80627 7.87976C4.84883 7.69533 4.89613 7.50381 4.94813 7.3052C5.02851 6.97416 5.16329 6.73299 5.35245 6.58168C5.54633 6.43037 5.77096 6.35469 6.02632 6.35469C6.28168 6.35469 6.46846 6.43037 6.58669 6.58168C6.70493 6.73299 6.7333 6.97416 6.67181 7.3052C6.6387 7.50381 6.60088 7.69533 6.55832 7.87976C6.5205 8.06418 6.47555 8.26045 6.42355 8.46851C6.34317 8.79954 6.206 9.04071 6.01213 9.19203ZM8.16791 10.3199C8.19628 10.353 8.2341 10.3695 8.2814 10.3695H9.2461C9.2981 10.3695 9.34301 10.353 9.38087 10.3199C9.42343 10.2867 9.44941 10.2442 9.4589 10.1922L9.78519 8.63874H10.7428C11.3528 8.63874 11.8375 8.50871 12.1969 8.24861C12.561 7.98851 12.8022 7.58658 12.9204 7.04274C12.9772 6.76846 12.9748 6.52967 12.9133 6.32632C12.8519 6.11826 12.7431 5.94563 12.5871 5.80851C12.431 5.67138 12.2347 5.56968 11.9983 5.50349C11.7666 5.4373 11.5065 5.40418 11.218 5.40418H9.33122C9.28391 5.40418 9.239 5.42072 9.19644 5.45384C9.15388 5.48695 9.12786 5.52951 9.11842 5.58152L8.13953 10.1922C8.13005 10.2442 8.13954 10.2867 8.16791 10.3199ZM10.7853 7.65986H9.96962L10.2463 6.39016H11.0975C11.2677 6.39016 11.393 6.41853 11.4734 6.47528C11.5585 6.53202 11.6082 6.6077 11.6224 6.70226C11.6365 6.79683 11.6318 6.90562 11.6082 7.02856C11.5609 7.24136 11.4592 7.39976 11.3032 7.50381C11.1518 7.60786 10.9792 7.65986 10.7853 7.65986Z" fill="#FCFCFD"/>
</svg>
