<svg width="16" height="16" viewBox="0 0 16 16" fill="none" xmlns="http://www.w3.org/2000/svg">
<g clip-path="url(#clip0_412_206)">
<path d="M14.6667 0H1.33333C0.596954 0 0 0.596954 0 1.33333V14.6667C0 15.403 0.596954 16 1.33333 16H14.6667C15.403 16 16 15.403 16 14.6667V1.33333C16 0.596954 15.403 0 14.6667 0Z" fill="#6C00F6"/>
<path d="M9.72467 4.42578L7.49214 5.70801V9.70983L6.26032 10.4239L5.02094 9.70925V8.2805L6.26032 7.57281L7.05721 8.03494V6.87899L6.25334 6.42263L4.02136 7.71934V10.2843L6.2609 11.5741L8.49285 10.2843V6.28307L9.73223 5.56841L10.971 6.28307V7.70543L9.73223 8.42645L8.92836 7.96023V9.11041L9.72467 9.56965L11.9787 8.28747V5.70801L9.72467 4.42578Z" fill="white"/>
</g>
<defs>
<clipPath id="clip0_412_206">
<path d="M0 4C0 1.79086 1.79086 0 4 0H12C14.2091 0 16 1.79086 16 4V12C16 14.2091 14.2091 16 12 16H4C1.79086 16 0 14.2091 0 12V4Z" fill="white"/>
</clipPath>
</defs>
</svg>
